# xmcd CD database file
#
# Track frame offsets:
#	182
#	16945
#	34097
#	58852
#	84647
#	102972
#	120657
#	146037
#	174487
#	201245
#	218445
#	241115
#	261990
#	278540
#
# Disc length: 3955 seconds
#
# Revision: 0
# Processed by: cddbd v1.5PL3 Copyright (c) Steve Scherf et al.
# Submitted via: CDex 1.51
#
DISCID=c10f710e
DTITLE=OSCAR DE LEON - Siguen los éxitos de Oscar de Leon..Vol. II
DYEAR=1900
DGENRE=Salsa
TTITLE0=tu orgullo
TTITLE1=sincera confesion
TTITLE2=parampampam
TTITLE3=un novio se solicita
TTITLE4=el frutero
TTITLE5=e el
TTITLE6=bravo de verdad
TTITLE7=mis hijos
TTITLE8=yo quisiera
TTITLE9=bonito y sabroso
TTITLE10=comuniquemonos
TTITLE11=sientate ahi
TTITLE12=para chango
TTITLE13=monta mi caballo
EXTD=
EXTT0=
EXTT1=
EXTT2=
EXTT3=
EXTT4=
EXTT5=
EXTT6=
EXTT7=
EXTT8=
EXTT9=
EXTT10=
EXTT11=
EXTT12=
EXTT13=
PLAYORDER=
